# Blender v3.4.1 OBJ File: 'GamedevTV_Free_Sample_Export.blend'
# www.blender.org
mtllib Coin_GameDevTV.mtl
o Coin_GameDevTV
v -0.000000 0.375690 0.150000
v -0.000000 0.500000 0.100000
v 0.000000 0.375690 -0.150000
v 0.000000 0.500000 -0.100000
v -0.187845 0.325357 0.150000
v -0.250000 0.433013 0.100000
v -0.187845 0.325357 -0.150000
v -0.250000 0.433013 -0.100000
v -0.325357 0.187845 0.150000
v -0.433013 0.250000 0.100000
v -0.325357 0.187845 -0.150000
v -0.433013 0.250000 -0.100000
v -0.375690 -0.000000 0.150000
v -0.500000 -0.000000 0.100000
v -0.375690 -0.000000 -0.150000
v -0.500000 -0.000000 -0.100000
v -0.325357 -0.187845 0.150000
v -0.433013 -0.250000 0.100000
v -0.325357 -0.187845 -0.150000
v -0.433013 -0.250000 -0.100000
v -0.187845 -0.325357 0.150000
v -0.250000 -0.433013 0.100000
v -0.187845 -0.325357 -0.150000
v -0.250000 -0.433013 -0.100000
v 0.000000 -0.375690 0.150000
v 0.000000 -0.500000 0.100000
v 0.000000 -0.375690 -0.150000
v 0.000000 -0.500000 -0.100000
v 0.187845 -0.325357 0.150000
v 0.250000 -0.433013 0.100000
v 0.187845 -0.325357 -0.150000
v 0.250000 -0.433013 -0.100000
v 0.325357 -0.187845 0.150000
v 0.433013 -0.250000 0.100000
v 0.325357 -0.187845 -0.150000
v 0.433013 -0.250000 -0.100000
v 0.375690 0.000000 0.150000
v 0.500000 0.000000 0.100000
v 0.375690 0.000000 -0.150000
v 0.500000 0.000000 -0.100000
v 0.325357 0.187845 0.150000
v 0.433013 0.250000 0.100000
v 0.325357 0.187845 -0.150000
v 0.433013 0.250000 -0.100000
v 0.187845 0.325357 0.150000
v 0.250000 0.433013 0.100000
v 0.187845 0.325357 -0.150000
v 0.250000 0.433013 -0.100000
v -0.224118 0.388184 0.150000
v -0.000000 0.448236 0.150000
v 0.000000 0.448236 -0.150000
v -0.224118 0.388184 -0.150000
v -0.388184 0.224118 0.150000
v -0.388184 0.224118 -0.150000
v -0.448236 -0.000000 0.150000
v -0.448236 -0.000000 -0.150000
v -0.388184 -0.224118 0.150000
v -0.388184 -0.224118 -0.150000
v -0.224118 -0.388184 0.150000
v -0.224118 -0.388184 -0.150000
v 0.000000 -0.448236 0.150000
v 0.000000 -0.448236 -0.150000
v 0.224118 -0.388184 0.150000
v 0.224118 -0.388184 -0.150000
v 0.388184 -0.224118 0.150000
v 0.388184 -0.224118 -0.150000
v 0.448236 0.000000 0.150000
v 0.448236 -0.000000 -0.150000
v 0.388184 0.224118 0.150000
v 0.388184 0.224118 -0.150000
v 0.224118 0.388184 0.150000
v 0.224118 0.388184 -0.150000
v -0.000000 -0.000000 0.109394
v 0.000000 -0.000000 -0.109394
v -0.161271 0.279330 0.109394
v -0.000000 0.322542 0.109394
v -0.279330 0.161271 0.109394
v -0.322542 -0.000000 0.109394
v -0.279330 -0.161271 0.109394
v -0.161271 -0.279330 0.109394
v 0.000000 -0.322542 0.109394
v 0.161271 -0.279330 0.109394
v 0.279330 -0.161271 0.109394
v 0.322542 -0.000000 0.109394
v 0.279330 0.161271 0.109394
v 0.161271 0.279329 0.109394
v 0.000000 0.322542 -0.109394
v -0.161271 0.279330 -0.109394
v -0.279330 0.161271 -0.109394
v -0.322542 -0.000000 -0.109394
v -0.279330 -0.161271 -0.109394
v -0.161271 -0.279330 -0.109394
v 0.000000 -0.322542 -0.109394
v 0.161271 -0.279330 -0.109394
v 0.279330 -0.161271 -0.109394
v 0.322542 -0.000000 -0.109394
v 0.279330 0.161271 -0.109394
v 0.161271 0.279329 -0.109394
vt 0.915927 0.700314
vt 0.915927 0.700314
vt 0.937503 0.705405
vt 0.937503 0.705405
vt 0.974874 0.648267
vt 0.974874 0.648267
vt 0.980656 0.621043
vt 0.980656 0.621043
vt 0.974874 0.593819
vt 0.974874 0.593819
vt 0.959079 0.534459
vt 0.959079 0.534459
vt 0.937503 0.527164
vt 0.937503 0.527164
vt 0.915927 0.534459
vt 0.915927 0.534459
vt 0.900133 0.593819
vt 0.900133 0.593819
vt 0.894352 0.621043
vt 0.894352 0.621043
vt 0.900133 0.648267
vt 0.900133 0.648267
vt 0.959079 0.700314
vt 0.959079 0.700314
vt 0.969927 0.601327
vt 0.965583 0.621783
vt 0.961611 0.618889
vt 0.965340 0.601327
vt 0.937503 0.719164
vt 0.959079 0.714073
vt 0.956846 0.710666
vt 0.937503 0.715230
vt 0.959079 0.714073
vt 0.937503 0.719164
vt 0.937503 0.715230
vt 0.956846 0.710666
vt 0.974874 0.667982
vt 0.971005 0.665164
vt 0.974874 0.667982
vt 0.971005 0.665164
vt 0.980656 0.640758
vt 0.976188 0.640758
vt 0.980656 0.640758
vt 0.976188 0.640758
vt 0.974874 0.613534
vt 0.971005 0.616352
vt 0.974874 0.613534
vt 0.971005 0.616352
vt 0.959079 0.554174
vt 0.956846 0.559056
vt 0.959079 0.554174
vt 0.956846 0.559056
vt 0.937503 0.546879
vt 0.937503 0.552516
vt 0.937503 0.546879
vt 0.937503 0.552516
vt 0.915927 0.554174
vt 0.918161 0.559056
vt 0.915927 0.554174
vt 0.918161 0.559056
vt 0.900133 0.613534
vt 0.904001 0.616352
vt 0.900133 0.613534
vt 0.904001 0.616352
vt 0.894352 0.640758
vt 0.898819 0.640758
vt 0.894352 0.640758
vt 0.898819 0.640758
vt 0.900133 0.667982
vt 0.904001 0.665164
vt 0.900133 0.667982
vt 0.904001 0.665164
vt 0.915927 0.714073
vt 0.918161 0.710666
vt 0.915927 0.714073
vt 0.918161 0.710666
vt 0.937503 0.520986
vt 0.921292 0.526467
vt 0.923586 0.531479
vt 0.937503 0.526773
vt 0.953715 0.719651
vt 0.937503 0.723476
vt 0.937503 0.728989
vt 0.956846 0.724425
vt 0.937503 0.723476
vt 0.953715 0.719651
vt 0.956846 0.724425
vt 0.937503 0.728989
vt 0.965583 0.680929
vt 0.971005 0.684879
vt 0.965583 0.680929
vt 0.971005 0.684879
vt 0.969927 0.660474
vt 0.976188 0.660474
vt 0.969927 0.660474
vt 0.976188 0.660474
vt 0.965583 0.640018
vt 0.971005 0.636068
vt 0.965583 0.640018
vt 0.971005 0.636068
vt 0.953715 0.585613
vt 0.956846 0.578771
vt 0.953715 0.585613
vt 0.956846 0.578771
vt 0.937503 0.580132
vt 0.937503 0.572232
vt 0.937503 0.580132
vt 0.937503 0.572232
vt 0.921292 0.585613
vt 0.918161 0.578771
vt 0.921292 0.585613
vt 0.918161 0.578771
vt 0.909424 0.640018
vt 0.904001 0.636068
vt 0.909424 0.640018
vt 0.904001 0.636068
vt 0.905080 0.660474
vt 0.898819 0.660474
vt 0.905080 0.660474
vt 0.898819 0.660474
vt 0.909424 0.680929
vt 0.904001 0.684879
vt 0.909424 0.680929
vt 0.904001 0.684879
vt 0.921292 0.719651
vt 0.918161 0.724425
vt 0.921292 0.719651
vt 0.918161 0.724425
vt 0.909424 0.621783
vt 0.921292 0.678373
vt 0.923586 0.671176
vt 0.913397 0.618889
vt 0.921292 0.526467
vt 0.937503 0.520986
vt 0.937503 0.526773
vt 0.923586 0.531479
vt 0.969927 0.601327
vt 0.965583 0.580872
vt 0.961611 0.583766
vt 0.965340 0.601327
vt 0.921292 0.678373
vt 0.909424 0.621783
vt 0.913397 0.618889
vt 0.923586 0.671176
vt 0.909424 0.580872
vt 0.913397 0.583766
vt 0.965583 0.580872
vt 0.961611 0.583766
vt 0.937503 0.682198
vt 0.937503 0.675882
vt 0.953715 0.678373
vt 0.951422 0.671176
vt 0.909424 0.580872
vt 0.913397 0.583766
vt 0.953715 0.526467
vt 0.951422 0.531479
vt 0.937503 0.682198
vt 0.937503 0.675882
vt 0.953715 0.678373
vt 0.951422 0.671176
vt 0.905080 0.601327
vt 0.909667 0.601327
vt 0.953715 0.526467
vt 0.951422 0.531479
vt 0.965583 0.621783
vt 0.961611 0.618889
vt 0.905080 0.601327
vt 0.909667 0.601327
vt 0.874999 0.125000
vt 0.874999 0.247363
vt 0.813818 0.230969
vt 0.769030 0.186182
vt 0.752637 0.125000
vt 0.769030 0.063818
vt 0.813818 0.019030
vt 0.874999 0.002637
vt 0.936181 0.019030
vt 0.980969 0.063818
vt 0.997363 0.125000
vt 0.980969 0.186182
vt 0.936181 0.230969
vt 0.875000 0.125000
vt 0.936181 0.230969
vt 0.875000 0.247363
vt 0.980969 0.186182
vt 0.997363 0.125000
vt 0.980969 0.063818
vt 0.936181 0.019030
vt 0.875000 0.002637
vt 0.813818 0.019030
vt 0.769030 0.063818
vt 0.752636 0.125000
vt 0.769030 0.186182
vt 0.813818 0.230969
vn 0.5000 0.8660 0.0000
vn 0.0000 1.0000 0.0000
vn -0.8660 0.5000 -0.0000
vn -1.0000 -0.0000 -0.0000
vn -0.8660 -0.5000 -0.0000
vn -0.5000 -0.8660 -0.0000
vn 0.0000 -1.0000 0.0000
vn 0.5000 -0.8660 0.0000
vn 0.8660 -0.5000 0.0000
vn 1.0000 0.0000 0.0000
vn 0.8660 0.5000 0.0000
vn -0.5000 0.8660 -0.0000
vn 0.6071 -0.0000 -0.7946
vn 0.5258 -0.3036 -0.7946
vn -0.0000 0.6947 0.7193
vn -0.3474 0.6017 0.7193
vn -0.2129 0.3687 0.9049
vn -0.0000 0.4257 0.9049
vn -0.3474 0.6017 -0.7193
vn 0.0000 0.6947 -0.7193
vn 0.0000 0.4257 -0.9049
vn -0.2129 0.3687 -0.9049
vn -0.6017 0.3474 0.7193
vn -0.3687 0.2129 0.9049
vn -0.6017 0.3474 -0.7193
vn -0.3687 0.2129 -0.9049
vn -0.6947 -0.0000 0.7193
vn -0.4257 0.0000 0.9049
vn -0.6947 -0.0000 -0.7193
vn -0.4257 -0.0000 -0.9049
vn -0.6017 -0.3474 0.7193
vn -0.3687 -0.2129 0.9049
vn -0.6017 -0.3474 -0.7193
vn -0.3687 -0.2129 -0.9049
vn -0.3474 -0.6017 0.7193
vn -0.2129 -0.3687 0.9049
vn -0.3474 -0.6017 -0.7193
vn -0.2129 -0.3687 -0.9049
vn -0.0000 -0.6947 0.7193
vn -0.0000 -0.4257 0.9049
vn 0.0000 -0.6947 -0.7193
vn 0.0000 -0.4257 -0.9049
vn 0.3474 -0.6017 0.7193
vn 0.2129 -0.3687 0.9049
vn 0.3474 -0.6017 -0.7193
vn 0.2129 -0.3687 -0.9049
vn 0.6017 -0.3474 0.7193
vn 0.3687 -0.2129 0.9049
vn 0.6017 -0.3474 -0.7193
vn 0.3687 -0.2129 -0.9049
vn 0.6947 0.0000 0.7193
vn 0.4257 0.0000 0.9049
vn 0.6947 -0.0000 -0.7193
vn 0.4257 -0.0000 -0.9049
vn 0.6017 0.3474 0.7193
vn 0.3687 0.2129 0.9049
vn 0.6017 0.3474 -0.7193
vn 0.3474 0.6017 0.7193
vn 0.2129 0.3687 0.9049
vn 0.3474 0.6017 -0.7193
vn 0.2129 0.3687 -0.9049
vn -0.0000 0.6071 0.7946
vn -0.3036 0.5258 0.7946
vn -0.0000 0.0000 1.0000
vn 0.0000 -0.0000 -1.0000
vn -0.5258 -0.3036 0.7946
vn -0.3036 -0.5258 0.7946
vn -0.3036 0.5258 -0.7946
vn 0.0000 0.6071 -0.7946
vn 0.6071 0.0000 0.7946
vn 0.5258 0.3036 0.7946
vn -0.3036 -0.5258 -0.7946
vn -0.5258 -0.3036 -0.7946
vn -0.5258 0.3036 0.7946
vn 0.5258 0.3036 -0.7946
vn -0.0000 -0.6071 0.7946
vn 0.3036 -0.5258 0.7946
vn -0.5258 0.3036 -0.7946
vn 0.3036 0.5258 0.7946
vn 0.0000 -0.6071 -0.7946
vn 0.3036 -0.5258 -0.7946
vn -0.6071 0.0000 0.7946
vn 0.3036 0.5258 -0.7946
vn 0.5258 -0.3036 0.7946
vn -0.6071 -0.0000 -0.7946
usemtl Environment_Material
s 1
f 46/1/1 48/2/1 4/3/2 2/4/2
f 10/5/3 12/6/3 16/7/4 14/8/4
f 14/8/4 16/7/4 20/9/5 18/10/5
f 18/10/5 20/9/5 24/11/6 22/12/6
f 22/12/6 24/11/6 28/13/7 26/14/7
f 26/14/7 28/13/7 32/15/8 30/16/8
f 30/16/8 32/15/8 36/17/9 34/18/9
f 34/18/9 36/17/9 40/19/10 38/20/10
f 38/20/10 40/19/10 44/21/11 42/22/11
f 42/22/11 44/21/11 48/2/1 46/1/1
f 6/23/12 8/24/12 12/6/3 10/5/3
f 15/25/13 11/26/14 89/27/14 90/28/13
f 2/4/2 4/3/2 8/24/12 6/23/12
f 2/29/15 6/30/16 49/31/17 50/32/18
f 8/33/19 4/34/20 51/35/21 52/36/22
f 6/30/16 10/37/23 53/38/24 49/31/17
f 12/39/25 8/33/19 52/36/22 54/40/26
f 10/37/23 14/41/27 55/42/28 53/38/24
f 16/43/29 12/39/25 54/40/26 56/44/30
f 14/41/27 18/45/31 57/46/32 55/42/28
f 20/47/33 16/43/29 56/44/30 58/48/34
f 18/45/31 22/49/35 59/50/36 57/46/32
f 24/51/37 20/47/33 58/48/34 60/52/38
f 22/49/35 26/53/39 61/54/40 59/50/36
f 28/55/41 24/51/37 60/52/38 62/56/42
f 26/53/39 30/57/43 63/58/44 61/54/40
f 32/59/45 28/55/41 62/56/42 64/60/46
f 30/57/43 34/61/47 65/62/48 63/58/44
f 36/63/49 32/59/45 64/60/46 66/64/50
f 34/61/47 38/65/51 67/66/52 65/62/48
f 40/67/53 36/63/49 66/64/50 68/68/54
f 38/65/51 42/69/55 69/70/56 67/66/52
f 44/71/57 40/67/53 68/68/54 70/72/57
f 42/69/55 46/73/58 71/74/59 69/70/56
f 48/75/60 44/71/57 70/72/57 72/76/61
f 46/73/58 2/29/15 50/32/18 71/74/59
f 4/34/20 48/75/60 72/76/61 51/35/21
f 25/77/62 29/78/63 82/79/63 81/80/62
f 5/81/64 1/82/64 50/83/18 49/84/17
f 3/85/65 7/86/65 52/87/22 51/88/21
f 9/89/64 5/81/64 49/84/17 53/90/24
f 7/86/65 11/91/65 54/92/26 52/87/22
f 13/93/64 9/89/64 53/90/24 55/94/28
f 11/91/65 15/95/65 56/96/30 54/92/26
f 17/97/64 13/93/64 55/94/28 57/98/32
f 15/95/65 19/99/65 58/100/34 56/96/30
f 21/101/64 17/97/64 57/98/32 59/102/36
f 19/99/65 23/103/65 60/104/38 58/100/34
f 25/105/64 21/101/64 59/102/36 61/106/40
f 23/103/65 27/107/65 62/108/42 60/104/38
f 29/109/64 25/105/64 61/106/40 63/110/44
f 27/107/65 31/111/65 64/112/46 62/108/42
f 33/113/64 29/109/64 63/110/44 65/114/48
f 31/111/65 35/115/65 66/116/50 64/112/46
f 37/117/64 33/113/64 65/114/48 67/118/52
f 35/115/65 39/119/65 68/120/54 66/116/50
f 41/121/64 37/117/64 67/118/52 69/122/56
f 39/119/65 43/123/65 70/124/65 68/120/54
f 45/125/64 41/121/64 69/122/56 71/126/59
f 43/123/65 47/127/65 72/128/61 70/124/65
f 1/82/64 45/125/64 71/126/59 50/83/18
f 47/127/65 3/85/65 51/88/21 72/128/61
f 41/129/66 45/130/67 86/131/67 85/132/66
f 31/133/68 27/134/69 93/135/69 94/136/68
f 13/137/70 17/138/71 79/139/71 78/140/70
f 47/141/72 43/142/73 97/143/73 98/144/72
f 29/78/63 33/145/74 83/146/74 82/79/63
f 19/147/75 15/25/13 90/28/13 91/148/75
f 45/130/67 1/149/76 76/150/76 86/131/67
f 1/149/76 5/151/77 75/152/77 76/150/76
f 35/153/78 31/133/68 94/136/68 95/154/78
f 17/138/71 21/155/79 80/156/79 79/139/71
f 3/157/80 47/141/72 98/144/72 87/158/80
f 7/159/81 3/157/80 87/158/80 88/160/81
f 33/145/74 37/161/82 84/162/82 83/146/74
f 23/163/83 19/147/75 91/148/75 92/164/83
f 5/151/77 9/165/84 77/166/84 75/152/77
f 39/167/85 35/153/78 95/154/78 96/168/85
f 21/155/79 25/77/62 81/80/62 80/156/79
f 11/26/14 7/159/81 88/160/81 89/27/14
f 37/161/82 41/129/66 85/132/66 84/162/82
f 27/134/69 23/163/83 92/164/83 93/135/69
f 9/165/84 13/137/70 78/140/70 77/166/84
f 43/142/73 39/167/85 96/168/85 97/143/73
f 73/169/64 76/170/64 75/171/64
f 73/169/64 75/171/64 77/172/64
f 73/169/64 77/172/64 78/173/64
f 73/169/64 78/173/64 79/174/64
f 73/169/64 79/174/64 80/175/64
f 73/169/64 80/175/64 81/176/64
f 73/169/64 81/176/64 82/177/64
f 73/169/64 82/177/64 83/178/64
f 73/169/64 83/178/64 84/179/64
f 73/169/64 84/179/64 85/180/64
f 73/169/64 85/180/64 86/181/64
f 73/169/64 86/181/64 76/170/64
f 74/182/65 88/183/65 87/184/65
f 74/182/65 89/185/65 88/183/65
f 74/182/65 90/186/65 89/185/65
f 74/182/65 91/187/65 90/186/65
f 74/182/65 92/188/65 91/187/65
f 74/182/65 93/189/65 92/188/65
f 74/182/65 94/190/65 93/189/65
f 74/182/65 95/191/65 94/190/65
f 74/182/65 96/192/65 95/191/65
f 74/182/65 97/193/65 96/192/65
f 74/182/65 98/194/65 97/193/65
f 74/182/65 87/184/65 98/194/65
