# Blender v3.4.1 OBJ File: 'GamedevTV_Free_Sample_Export.blend'
# www.blender.org
mtllib Lever_Base.mtl
o Lever_Base
v -0.249451 -0.256394 0.400000
v -0.249451 0.256394 0.400000
v 0.249451 -0.256394 0.400000
v 0.249451 0.256394 0.400000
v -0.249451 -0.256394 0.249628
v -0.249451 0.256394 0.249628
v 0.249451 0.256394 0.249628
v 0.249451 -0.256394 0.249628
v -0.270570 -0.470569 0.000000
v -0.270570 0.470569 0.000000
v 0.270570 -0.470569 0.000000
v 0.270570 0.470569 0.000000
v -0.320299 -0.520299 0.400000
v -0.320299 0.520299 0.400000
v 0.320299 0.520299 0.400000
v 0.320299 -0.520299 0.400000
v -0.400000 -0.482535 0.338636
v -0.379081 -0.491199 0.382027
v -0.282535 -0.600000 0.338636
v -0.291200 -0.579081 0.382027
v -0.365595 -0.565595 0.338636
v -0.353283 -0.553283 0.382027
v -0.282535 0.600000 0.338636
v -0.291200 0.579081 0.382027
v -0.400000 0.482535 0.338636
v -0.379081 0.491199 0.382027
v -0.365595 0.565595 0.338636
v -0.353283 0.553283 0.382027
v 0.400000 0.482535 0.338636
v 0.379081 0.491199 0.382027
v 0.282535 0.600000 0.338636
v 0.291200 0.579081 0.382027
v 0.365595 0.565595 0.338636
v 0.353283 0.553283 0.382027
v 0.282535 -0.600000 0.338636
v 0.291200 -0.579081 0.382027
v 0.400000 -0.482535 0.338636
v 0.379081 -0.491199 0.382027
v 0.365595 -0.565595 0.338636
v 0.353283 -0.553283 0.382027
v -0.365595 -0.565595 0.000000
v -0.282535 -0.600000 0.000000
v -0.400000 -0.482535 0.000000
v -0.282535 0.600000 0.000000
v -0.365595 0.565595 0.000000
v -0.400000 0.482535 0.000000
v 0.282535 -0.600000 0.000000
v 0.365595 -0.565595 0.000000
v 0.400000 -0.482535 0.000000
v 0.365595 0.565595 0.000000
v 0.282535 0.600000 0.000000
v 0.400000 0.482535 0.000000
vt 0.172016 0.580563
vt 0.156570 0.580563
vt 0.156570 0.667817
vt 0.172016 0.667817
vt 0.157173 0.647960
vt 0.171413 0.647960
vt 0.173435 0.672427
vt 0.155150 0.672427
vt 0.156228 0.568563
vt 0.156228 0.568563
vt 0.153857 0.571753
vt 0.153857 0.571753
vt 0.157173 0.553544
vt 0.171413 0.553544
vt 0.171413 0.553544
vt 0.157173 0.553544
vt 0.157173 0.600419
vt 0.155150 0.575952
vt 0.171413 0.600419
vt 0.173435 0.575952
vt 0.153857 0.676627
vt 0.153857 0.676627
vt 0.152875 0.668926
vt 0.152875 0.668926
vt 0.172357 0.679817
vt 0.172357 0.679817
vt 0.174728 0.676627
vt 0.174728 0.676627
vt 0.171413 0.601085
vt 0.157173 0.601085
vt 0.157173 0.601085
vt 0.171413 0.601085
vt 0.152875 0.579453
vt 0.152875 0.579453
vt 0.172357 0.568563
vt 0.172357 0.568563
vt 0.156228 0.679817
vt 0.156228 0.679817
vt 0.175710 0.668926
vt 0.175710 0.668926
vt 0.174728 0.571753
vt 0.174728 0.571753
vt 0.175710 0.579453
vt 0.175710 0.579453
vt 0.152875 0.610703
vt 0.153857 0.603003
vt 0.154209 0.604144
vt 0.153473 0.609900
vt 0.153473 0.578650
vt 0.154209 0.572894
vt 0.156228 0.599813
vt 0.155981 0.601752
vt 0.155981 0.570502
vt 0.156228 0.711067
vt 0.153857 0.707877
vt 0.154209 0.706735
vt 0.155981 0.709127
vt 0.155981 0.677877
vt 0.154209 0.675485
vt 0.152875 0.700176
vt 0.153473 0.700980
vt 0.153473 0.669730
vt 0.175710 0.700176
vt 0.174728 0.707877
vt 0.174377 0.706735
vt 0.175113 0.700980
vt 0.175113 0.669730
vt 0.174377 0.675485
vt 0.172357 0.711067
vt 0.172605 0.709127
vt 0.172605 0.677877
vt 0.172357 0.599813
vt 0.174728 0.603003
vt 0.174377 0.604144
vt 0.172605 0.601752
vt 0.172605 0.570502
vt 0.174377 0.572894
vt 0.175710 0.610703
vt 0.175113 0.609900
vt 0.175113 0.578650
vn 0.0000 0.0000 -1.0000
vn 0.0000 0.0000 1.0000
vn 0.1526 0.1526 0.9764
vn -0.1526 0.1526 0.9764
vn -0.1951 -0.9808 0.0000
vn -0.7071 -0.7071 0.0000
vn 0.0000 1.0000 0.0000
vn -0.1526 -0.1526 0.9764
vn 0.1526 -0.1526 0.9764
vn -0.7071 0.7071 0.0000
vn -0.9808 0.1951 0.0000
vn 0.1951 0.9808 0.0000
vn 0.7071 0.7071 0.0000
vn 1.0000 0.0000 0.0000
vn 0.0000 -1.0000 0.0000
vn -1.0000 0.0000 0.0000
vn -0.9808 -0.1951 0.0000
vn 0.1951 -0.9808 0.0000
vn -0.1951 0.9808 0.0000
vn 0.9808 0.1951 0.0000
vn 0.7071 -0.7071 0.0000
vn 0.9808 -0.1951 0.0000
vn -0.9017 -0.1515 0.4049
vn -0.6565 -0.6565 0.3715
vn -0.8961 -0.2111 0.3904
vn -0.3104 -0.0405 0.9497
vn -0.2542 -0.2542 0.9331
vn -0.1515 -0.9017 0.4049
vn -0.2111 -0.8961 0.3904
vn -0.0405 -0.3104 0.9497
vn -0.1515 0.9017 0.4049
vn -0.6565 0.6565 0.3715
vn -0.2111 0.8961 0.3904
vn -0.0405 0.3104 0.9497
vn -0.2542 0.2542 0.9331
vn -0.9017 0.1515 0.4049
vn -0.8961 0.2111 0.3904
vn -0.3104 0.0405 0.9497
vn 0.9017 0.1515 0.4049
vn 0.6565 0.6565 0.3715
vn 0.8961 0.2111 0.3904
vn 0.3104 0.0405 0.9497
vn 0.2542 0.2542 0.9331
vn 0.1515 0.9017 0.4049
vn 0.2111 0.8961 0.3904
vn 0.0405 0.3104 0.9497
vn 0.1515 -0.9017 0.4049
vn 0.6565 -0.6565 0.3715
vn 0.2111 -0.8961 0.3904
vn 0.0405 -0.3104 0.9497
vn 0.2542 -0.2542 0.9331
vn 0.9017 -0.1515 0.4049
vn 0.8961 -0.2111 0.3904
vn 0.3104 -0.0405 0.9497
usemtl Environment_Material
s 1
f 11/1/1 9/2/1 10/3/1 12/4/1
f 2/5/2 4/6/2 15/7/3 14/8/4
f 42/9/5 19/10/5 21/11/6 41/12/6
f 1/13/7 3/14/7 8/15/7 5/16/7
f 1/17/2 2/5/2 14/8/4 13/18/8
f 4/6/2 3/19/2 16/20/9 15/7/3
f 27/21/10 45/22/10 46/23/11 25/24/11
f 51/25/12 31/26/12 33/27/13 50/28/13
f 8/15/2 7/29/2 6/30/2 5/16/2
f 2/31/14 1/13/14 5/16/14 6/30/14
f 4/32/15 2/31/15 6/30/15 7/29/15
f 3/14/16 4/32/16 7/29/16 8/15/16
f 41/12/6 21/11/6 17/33/17 43/34/17
f 42/9/5 47/35/18 35/36/18 19/10/5
f 23/37/19 44/38/19 45/22/10 27/21/10
f 50/28/13 33/27/13 29/39/20 52/40/20
f 35/36/18 47/35/18 48/41/21 39/42/21
f 17/33/17 25/24/11 46/23/11 43/34/17
f 51/25/12 44/38/19 23/37/19 31/26/12
f 39/42/21 48/41/21 49/43/22 37/44/22
f 49/43/22 52/40/20 29/39/20 37/44/22
f 3/19/2 1/17/2 13/18/8 16/20/9
f 17/45/23 21/46/24 22/47/24 18/48/25
f 18/49/26 22/50/27 13/18/8
f 21/46/24 19/51/28 20/52/29 22/47/24
f 22/50/27 20/53/30 13/18/8
f 23/54/31 27/55/32 28/56/32 24/57/33
f 24/58/34 28/59/35 14/8/4
f 27/55/32 25/60/36 26/61/37 28/56/32
f 28/59/35 26/62/38 14/8/4
f 29/63/39 33/64/40 34/65/40 30/66/41
f 30/67/42 34/68/43 15/7/3
f 33/64/40 31/69/44 32/70/45 34/65/40
f 34/68/43 32/71/46 15/7/3
f 35/72/47 39/73/48 40/74/48 36/75/49
f 36/76/50 40/77/51 16/20/9
f 39/73/48 37/78/52 38/79/53 40/74/48
f 40/77/51 38/80/54 16/20/9
f 16/20/9 13/18/8 20/53/30 36/76/50
f 36/75/49 20/52/29 19/51/28 35/72/47
f 13/18/8 14/8/4 26/62/38 18/49/26
f 18/48/25 26/61/37 25/60/36 17/45/23
f 14/8/4 15/7/3 32/71/46 24/58/34
f 24/57/33 32/70/45 31/69/44 23/54/31
f 15/7/3 16/20/9 38/80/54 30/67/42
f 30/66/41 38/79/53 37/78/52 29/63/39
f 9/2/1 42/9/1 41/12/1
f 9/2/1 41/12/1 43/34/1
f 10/3/1 45/22/1 44/38/1
f 10/3/1 46/23/1 45/22/1
f 11/1/1 48/41/1 47/35/1
f 11/1/1 49/43/1 48/41/1
f 12/4/1 51/25/1 50/28/1
f 12/4/1 50/28/1 52/40/1
f 9/2/1 11/1/1 47/35/1 42/9/1
f 10/3/1 9/2/1 43/34/1 46/23/1
f 12/4/1 10/3/1 44/38/1 51/25/1
f 11/1/1 12/4/1 52/40/1 49/43/1
