# Blender v3.4.1 OBJ File: 'GamedevTV_Free_Sample_Export.blend'
# www.blender.org
mtllib Primitive_Cube_Small_B.mtl
o Primitive_Cube_Small_B
v -1.000000 0.050000 0.950000
v -0.950000 0.000000 0.950000
v -0.950000 0.050000 1.000000
v -0.950000 1.950000 1.000000
v -0.950000 2.000000 0.950000
v -1.000000 1.950000 0.950000
v -1.000000 0.050000 -0.950000
v -0.950000 0.050000 -1.000000
v -0.950000 0.000000 -0.950000
v -0.950000 1.950000 -1.000000
v -1.000000 1.950000 -0.950000
v -0.950000 2.000000 -0.950000
v 1.000000 0.050000 0.950000
v 0.950000 0.050000 1.000000
v 0.950000 0.000000 0.950000
v 1.000000 1.950000 0.950000
v 0.950000 2.000000 0.950000
v 0.950000 1.950000 1.000000
v 1.000000 0.050000 -0.950000
v 0.950000 0.000000 -0.950000
v 0.950000 0.050000 -1.000000
v 1.000000 1.950000 -0.950000
v 0.950000 1.950000 -1.000000
v 0.950000 2.000000 -0.950000
v -0.950000 1.000000 1.000000
v -1.000000 1.000000 0.950000
v -0.950000 1.000000 -1.000000
v -1.000000 1.000000 -0.950000
v 1.000000 1.000000 -0.950000
v 0.950000 1.000000 -1.000000
v 0.950000 1.000000 1.000000
v 1.000000 1.000000 0.950000
vt 0.146232 0.775833
vt 0.162755 0.775833
vt 0.162755 0.775833
vt 0.146232 0.775833
vt 0.208732 0.930629
vt 0.225255 0.930630
vt 0.225255 0.930630
vt 0.208732 0.930629
vt 0.146232 0.829794
vt 0.146232 0.802791
vt 0.162755 0.802791
vt 0.162755 0.829794
vt 0.146232 0.829794
vt 0.162755 0.829794
vt 0.162755 0.802791
vt 0.146232 0.802791
vt 0.163190 0.829794
vt 0.163190 0.829794
vt 0.163190 0.802791
vt 0.163190 0.802791
vt 0.145798 0.880916
vt 0.145798 0.879494
vt 0.145798 0.880916
vt 0.208732 0.981797
vt 0.208732 0.983218
vt 0.208298 0.981797
vt 0.145798 0.880916
vt 0.145798 0.880916
vt 0.145798 0.879494
vt 0.208298 0.981797
vt 0.208298 0.983218
vt 0.208298 0.983218
vt 0.163190 0.880916
vt 0.162755 0.879494
vt 0.162755 0.879494
vt 0.225690 0.981797
vt 0.225690 0.983218
vt 0.225690 0.981797
vt 0.163190 0.880916
vt 0.163190 0.879494
vt 0.163190 0.880916
vt 0.225690 0.981797
vt 0.225255 0.983218
vt 0.225255 0.983218
vt 0.208732 0.954794
vt 0.208298 0.954794
vt 0.146232 0.907919
vt 0.146232 0.880916
vt 0.145798 0.907919
vt 0.163190 0.907919
vt 0.162755 0.880916
vt 0.162755 0.907919
vt 0.162755 0.907919
vt 0.162755 0.880916
vt 0.163190 0.907919
vt 0.162755 0.879494
vt 0.146232 0.879494
vt 0.146232 0.879494
vt 0.146232 0.880916
vt 0.208298 0.983218
vt 0.208298 0.981797
vt 0.225255 0.983218
vt 0.225255 0.981797
vt 0.163190 0.879494
vt 0.208732 0.983218
vt 0.225255 0.981797
vt 0.208732 0.981797
vt 0.225690 0.983218
vt 0.145798 0.829794
vt 0.145798 0.829794
vt 0.145798 0.802791
vt 0.145798 0.802791
vt 0.208298 0.903672
vt 0.208298 0.903672
vt 0.208298 0.876669
vt 0.208298 0.876669
vt 0.225255 0.954794
vt 0.225690 0.954794
vt 0.225690 0.954794
vt 0.225255 0.954794
vt 0.208732 0.954794
vt 0.208298 0.954794
vt 0.146232 0.907919
vt 0.145798 0.907919
vt 0.225690 0.903672
vt 0.225690 0.903672
vt 0.225690 0.876669
vt 0.225690 0.876669
vt 0.208732 0.903672
vt 0.225255 0.903672
vt 0.225255 0.876669
vt 0.208732 0.876669
vt 0.208732 0.903672
vt 0.208732 0.876669
vt 0.225255 0.876669
vt 0.225255 0.903672
vn 0.0000 -1.0000 0.0000
vn 0.0000 1.0000 0.0000
vn 0.0000 0.0000 1.0000
vn 0.0000 0.0000 -1.0000
vn 1.0000 0.0000 0.0000
vn -0.7588 -0.4606 0.4606
vn -0.4606 -0.7588 0.4606
vn -0.4606 -0.4606 0.7588
vn -0.4606 0.4606 0.7588
vn -0.4606 0.7588 0.4606
vn -0.7588 0.4606 0.4606
vn -0.7588 -0.4606 -0.4606
vn -0.4606 -0.4606 -0.7588
vn -0.4606 -0.7588 -0.4606
vn -0.4606 0.4606 -0.7588
vn -0.7588 0.4606 -0.4606
vn -0.4606 0.7588 -0.4606
vn 0.7588 -0.4606 0.4606
vn 0.4606 -0.4606 0.7588
vn 0.4606 -0.7588 0.4606
vn 0.7588 0.4606 0.4606
vn 0.4606 0.7588 0.4606
vn 0.4606 0.4606 0.7588
vn 0.7588 -0.4606 -0.4606
vn 0.4606 -0.7588 -0.4606
vn 0.4606 -0.4606 -0.7588
vn 0.7588 0.4606 -0.4606
vn 0.4606 0.4606 -0.7588
vn 0.4606 0.7588 -0.4606
vn -0.7071 0.0000 0.7071
vn -0.7071 0.0000 -0.7071
vn 0.7071 0.0000 -0.7071
vn 0.7071 0.0000 0.7071
vn -1.0000 0.0000 0.0000
usemtl Environment_Material
s 1
f 9/1/1 20/2/1 15/3/1 2/4/1
f 5/5/2 17/6/2 24/7/2 12/8/2
f 25/9/3 3/10/3 14/11/3 31/12/3
f 27/13/4 30/14/4 21/15/4 8/16/4
f 29/17/5 32/18/5 13/19/5 19/20/5
f 1/21/6 2/22/7 3/23/8
f 4/24/9 5/25/10 6/26/11
f 7/27/12 8/28/13 9/29/14
f 10/30/15 11/31/16 12/32/17
f 13/33/18 14/34/19 15/35/20
f 16/36/21 17/37/22 18/38/23
f 19/39/24 20/40/25 21/41/26
f 22/42/27 23/43/28 24/44/29
f 25/45/30 4/24/9 6/26/11 26/46/30
f 27/47/31 8/48/13 7/27/12 28/49/31
f 29/50/32 19/39/24 21/51/26 30/52/32
f 31/53/33 14/54/19 13/33/18 32/55/33
f 20/56/25 9/57/14 8/48/13 21/51/26
f 2/58/7 15/35/20 14/54/19 3/59/8
f 9/29/14 2/22/7 1/21/6 7/27/12
f 5/60/10 12/32/17 11/61/16 6/26/11
f 17/62/22 5/25/10 4/24/9 18/63/23
f 15/64/20 20/40/25 19/39/24 13/33/18
f 12/65/17 24/44/29 23/66/28 10/67/15
f 24/68/29 17/37/22 16/36/21 22/42/27
f 26/69/34 28/70/34 7/71/34 1/72/34
f 6/73/34 11/74/34 28/75/34 26/76/34
f 18/63/23 31/77/33 32/78/33 16/36/21
f 22/42/27 29/79/32 30/80/32 23/66/28
f 10/67/15 27/81/31 28/82/31 11/61/16
f 3/59/8 25/83/30 26/84/30 1/21/6
f 22/85/5 16/86/5 32/87/5 29/88/5
f 10/89/4 23/90/4 30/91/4 27/92/4
f 4/93/3 25/94/3 31/95/3 18/96/3
