# Blender v3.4.1 OBJ File: 'GamedevTV_Free_Sample_Export.blend'
# www.blender.org
mtllib Primitive_Cube_B.mtl
o Primitive_Cube_B
v -2.000000 0.050000 1.950000
v -1.950000 0.000000 1.950000
v -1.950000 0.050000 2.000000
v -1.950000 3.950001 2.000000
v -1.950000 4.000000 1.950000
v -2.000000 3.950001 1.950000
v -2.000000 0.050000 -1.950000
v -1.950000 0.050000 -2.000000
v -1.950000 0.000000 -1.950000
v -1.950000 3.950001 -2.000000
v -2.000000 3.950001 -1.950000
v -1.950000 4.000000 -1.950000
v 2.000000 0.050000 1.950000
v 1.950000 0.050000 2.000000
v 1.950000 0.000000 1.950000
v 2.000000 3.950001 1.950000
v 1.950000 4.000000 1.950000
v 1.950000 3.950001 2.000000
v 2.000000 0.050000 -1.950000
v 1.950000 0.000000 -1.950000
v 1.950000 0.050000 -2.000000
v 2.000000 3.950001 -1.950000
v 1.950000 3.950001 -2.000000
v 1.950000 4.000000 -1.950000
v 0.000000 0.000000 -1.950000
v 0.000000 0.050000 -2.000000
v 0.000000 0.000000 1.950000
v 0.000000 0.050000 2.000000
v 0.000000 4.000000 1.950000
v 0.000000 3.950001 2.000000
v 0.000000 4.000000 -1.950000
v 0.000000 3.950001 -2.000000
v -1.950000 2.000000 2.000000
v -2.000000 2.000000 1.950000
v -1.950000 2.000000 -2.000000
v -2.000000 2.000000 -1.950000
v 2.000000 2.000000 -1.950000
v 1.950000 2.000000 -2.000000
v 1.950000 2.000000 2.000000
v 2.000000 2.000000 1.950000
v 0.000000 2.000000 -2.000000
v 0.000000 2.000000 2.000000
v -1.950000 0.000000 0.000000
v -2.000000 0.050000 0.000000
v -1.950000 4.000000 0.000000
v -2.000000 3.950001 0.000000
v 1.950000 0.000000 0.000000
v 2.000000 0.050000 0.000000
v 1.950000 4.000000 0.000000
v 2.000000 3.950001 0.000000
v 0.000000 4.000000 0.000000
v 0.000000 0.000000 0.000000
v -2.000000 2.000000 0.000000
v 2.000000 2.000000 0.000000
vt 0.154494 0.775833
vt 0.171451 0.775833
vt 0.171451 0.775833
vt 0.154494 0.775833
vt 0.154494 0.940603
vt 0.171451 0.940603
vt 0.171451 0.940603
vt 0.154494 0.940603
vt 0.154494 0.858218
vt 0.154494 0.802791
vt 0.171451 0.802791
vt 0.171451 0.858218
vt 0.154494 0.834780
vt 0.171451 0.834780
vt 0.171451 0.779353
vt 0.154494 0.779353
vt 0.171886 0.858218
vt 0.171886 0.858218
vt 0.171886 0.802791
vt 0.171886 0.802791
vt 0.199602 0.857478
vt 0.199602 0.856057
vt 0.199602 0.857478
vt 0.200036 0.991770
vt 0.200036 0.993191
vt 0.199602 0.991770
vt 0.199602 0.880916
vt 0.199602 0.880916
vt 0.199602 0.879494
vt 0.199602 0.968333
vt 0.199602 0.968333
vt 0.199602 0.969754
vt 0.234386 0.880916
vt 0.234386 0.880916
vt 0.233951 0.879494
vt 0.941958 0.741770
vt 0.941958 0.743191
vt 0.941958 0.741770
vt 0.234386 0.857478
vt 0.234386 0.856057
vt 0.234386 0.857478
vt 0.234386 0.991770
vt 0.234386 0.991770
vt 0.233951 0.993191
vt 0.200036 0.936343
vt 0.199602 0.936343
vt 0.200036 0.936343
vt 0.200036 0.880916
vt 0.199602 0.936343
vt 0.234386 0.912905
vt 0.233951 0.857478
vt 0.233951 0.912905
vt 0.233951 0.936343
vt 0.233951 0.880916
vt 0.234386 0.936343
vt 0.216994 0.879494
vt 0.200036 0.879494
vt 0.216994 0.880916
vt 0.216994 0.879494
vt 0.216994 0.880916
vt 0.199602 0.856057
vt 0.199602 0.857478
vt 0.199602 0.969754
vt 0.199602 0.968333
vt 0.216994 0.993191
vt 0.216994 0.991770
vt 0.234386 0.856057
vt 0.234386 0.857478
vt 0.216994 0.993191
vt 0.233951 0.991770
vt 0.216994 0.991770
vt 0.941958 0.743191
vt 0.941958 0.741770
vt 0.137102 0.858218
vt 0.137102 0.858218
vt 0.137102 0.802791
vt 0.137102 0.802791
vt 0.200036 0.969754
vt 0.216994 0.969754
vt 0.216994 0.968333
vt 0.200036 0.968333
vt 0.941791 0.743191
vt 0.935273 0.743191
vt 0.935273 0.741770
vt 0.941791 0.741770
vt 0.200036 0.856057
vt 0.216994 0.856057
vt 0.216994 0.857478
vt 0.200036 0.857478
vt 0.233951 0.856057
vt 0.216994 0.856057
vt 0.216994 0.857478
vt 0.137536 0.858218
vt 0.154494 0.858218
vt 0.154494 0.802791
vt 0.137536 0.802791
vt 0.137536 0.834780
vt 0.137536 0.779353
vt 0.154494 0.779353
vt 0.154494 0.834780
vt 0.137536 0.917165
vt 0.154494 0.917165
vt 0.154494 0.917165
vt 0.137536 0.917165
vt 0.137536 0.752395
vt 0.154494 0.752395
vt 0.154494 0.752395
vt 0.137536 0.752395
vt 0.137536 0.913645
vt 0.137536 0.858218
vt 0.154494 0.913645
vt 0.137536 0.890208
vt 0.154494 0.890208
vt 0.137536 0.834780
vt 0.137102 0.890208
vt 0.137102 0.890208
vt 0.137102 0.834780
vt 0.137102 0.834780
vt 0.941791 0.686343
vt 0.941958 0.686343
vt 0.234386 0.936343
vt 0.233951 0.936343
vt 0.200036 0.912905
vt 0.199602 0.912905
vt 0.200036 0.912905
vt 0.199602 0.912905
vt 0.917933 0.663645
vt 0.917933 0.663645
vt 0.917933 0.608218
vt 0.917933 0.608218
vt 0.154494 0.913645
vt 0.171451 0.913645
vt 0.171451 0.858218
vt 0.753263 0.246737
vt 0.753263 0.003263
vt 0.996737 0.003263
vt 0.996737 0.246737
vt 0.171886 0.913645
vt 0.171886 0.913645
vt 0.171886 0.858218
vt 0.137102 0.913645
vt 0.137102 0.913645
vt 0.137102 0.858218
vt 0.137536 0.775833
vt 0.154494 0.775833
vt 0.137536 0.775833
vt 0.137536 0.940603
vt 0.154494 0.940603
vt 0.137536 0.940603
vt 0.137102 0.834780
vt 0.137102 0.779353
vt 0.137102 0.779353
vt 0.234386 0.993191
vt 0.234386 0.993191
vt 0.234386 0.991770
vt 0.234386 0.879494
vt 0.234386 0.879494
vt 0.234386 0.880916
vt 0.199602 0.993191
vt 0.199602 0.993191
vt 0.199602 0.991770
vt 0.199602 0.879494
vt 0.199602 0.880916
vt 0.171886 0.834780
vt 0.171886 0.834780
vt 0.171886 0.779353
vt 0.171886 0.779353
vt 0.911248 0.690603
vt 0.917766 0.690603
vt 0.917766 0.690603
vt 0.911248 0.690603
vt 0.154494 0.752395
vt 0.171451 0.752395
vt 0.171451 0.752395
vn 0.0000 -1.0000 0.0000
vn 0.0000 1.0000 0.0000
vn 0.0000 0.0000 1.0000
vn 0.0000 0.0000 -1.0000
vn 1.0000 0.0000 0.0000
vn -0.7588 -0.4606 0.4606
vn -0.4606 -0.7588 0.4606
vn -0.4606 -0.4606 0.7588
vn -0.4606 0.4606 0.7588
vn -0.4606 0.7588 0.4606
vn -0.7588 0.4606 0.4606
vn -0.7588 -0.4606 -0.4606
vn -0.4606 -0.4606 -0.7588
vn -0.4606 -0.7588 -0.4606
vn -0.4606 0.4606 -0.7588
vn -0.7588 0.4606 -0.4606
vn -0.4606 0.7588 -0.4606
vn 0.7588 -0.4606 0.4606
vn 0.4606 -0.4606 0.7588
vn 0.4606 -0.7588 0.4606
vn 0.7588 0.4606 0.4606
vn 0.4606 0.7588 0.4606
vn 0.4606 0.4606 0.7588
vn 0.7588 -0.4606 -0.4606
vn 0.4606 -0.7588 -0.4606
vn 0.4606 -0.4606 -0.7588
vn 0.7588 0.4606 -0.4606
vn 0.4606 0.4606 -0.7588
vn 0.4606 0.7588 -0.4606
vn -0.7071 0.0000 0.7071
vn -0.7071 0.0000 -0.7071
vn 0.7071 0.0000 -0.7071
vn 0.7071 0.0000 0.7071
vn 0.0000 -0.7071 -0.7071
vn 0.0000 -0.7071 0.7071
vn -0.7071 -0.7071 0.0000
vn -0.7071 0.7071 0.0000
vn 0.0000 0.7071 0.7071
vn 0.7071 -0.7071 -0.0000
vn 0.0000 0.7071 -0.7071
vn 0.7071 0.7071 0.0000
vn -1.0000 0.0000 0.0000
usemtl Environment_Material
s 1
f 52/1/1 47/2/1 15/3/1 27/4/1
f 51/5/2 49/6/2 24/7/2 31/8/2
f 42/9/3 28/10/3 14/11/3 39/12/3
f 41/13/4 38/14/4 21/15/4 26/16/4
f 54/17/5 40/18/5 13/19/5 48/20/5
f 1/21/6 2/22/7 3/23/8
f 4/24/9 5/25/10 6/26/11
f 7/27/12 8/28/13 9/29/14
f 10/30/15 11/31/16 12/32/17
f 13/33/18 14/34/19 15/35/20
f 16/36/21 17/37/22 18/38/23
f 19/39/24 20/40/25 21/41/26
f 22/42/27 23/43/28 24/44/29
f 33/45/30 4/24/9 6/26/11 34/46/30
f 35/47/31 8/48/13 7/27/12 36/49/31
f 37/50/32 19/39/24 21/51/26 38/52/32
f 39/53/33 14/54/19 13/33/18 40/55/33
f 25/56/34 9/57/14 8/48/13 26/58/34
f 27/59/35 15/35/20 14/54/19 28/60/35
f 43/61/36 2/22/7 1/21/6 44/62/36
f 45/63/37 12/32/17 11/31/16 46/64/37
f 29/65/38 5/25/10 4/24/9 30/66/38
f 47/67/39 20/40/25 19/39/24 48/68/39
f 31/69/40 24/44/29 23/70/28 32/71/40
f 49/72/41 17/37/22 16/36/21 50/73/41
f 53/74/42 36/75/42 7/76/42 44/77/42
f 12/78/17 31/79/40 32/80/40 10/81/15
f 17/82/22 29/83/38 30/84/38 18/85/23
f 2/86/7 27/87/35 28/88/35 3/89/8
f 20/90/25 25/91/34 26/92/34 21/51/26
f 35/93/4 41/94/4 26/95/4 8/96/4
f 33/97/3 3/98/3 28/99/3 42/100/3
f 45/101/2 51/102/2 31/103/2 12/104/2
f 43/105/1 52/106/1 27/107/1 2/108/1
f 4/109/3 33/110/3 42/9/3 30/111/3
f 10/112/4 32/113/4 41/13/4 35/114/4
f 46/115/42 11/116/42 36/117/42 53/118/42
f 18/85/23 39/119/33 40/120/33 16/36/21
f 22/42/27 37/121/32 38/122/32 23/70/28
f 10/81/15 35/123/31 36/124/31 11/31/16
f 3/89/8 33/125/30 34/126/30 1/21/6
f 50/127/5 16/128/5 40/129/5 54/130/5
f 32/131/4 23/132/4 38/133/4 41/94/4
f 30/134/3 42/135/3 39/136/3 18/137/3
f 22/138/5 50/139/5 54/17/5 37/140/5
f 6/141/42 46/142/42 53/74/42 34/143/42
f 9/144/1 25/145/1 52/1/1 43/146/1
f 5/147/2 29/148/2 51/5/2 45/149/2
f 34/150/42 53/118/42 44/151/42 1/152/42
f 24/153/29 49/154/41 50/155/41 22/42/27
f 15/156/20 47/157/39 48/158/39 13/33/18
f 5/159/10 45/160/37 46/161/37 6/26/11
f 9/29/14 43/162/36 44/163/36 7/27/12
f 37/164/5 54/165/5 48/166/5 19/167/5
f 29/168/2 17/169/2 49/170/2 51/171/2
f 25/172/1 20/173/1 47/174/1 52/106/1
