# Blender v3.4.1 OBJ File: 'GamedevTV_Free_Sample_Export.blend'
# www.blender.org
mtllib Primitive_Window.mtl
o Primitive_Window
v 1.950000 0.000000 0.450000
v 2.000000 0.050000 0.450000
v 1.950000 0.050000 0.500000
v 1.950000 4.000000 0.450000
v 1.950000 3.950001 0.500000
v 2.000000 3.950001 0.450000
v -2.000000 0.050000 0.450000
v -1.950000 0.000000 0.450000
v -1.950000 0.050000 0.500000
v -2.000000 3.950001 0.450000
v -1.950000 3.950001 0.500000
v -1.950000 4.000000 0.450000
v 2.000000 0.050000 -0.450000
v 1.950000 0.000000 -0.450000
v 1.950000 0.050000 -0.500000
v 2.000000 3.950001 -0.450000
v 1.950000 3.950001 -0.500000
v 1.950000 4.000000 -0.450000
v -2.000000 0.050000 -0.450000
v -1.950000 0.050000 -0.500000
v -1.950000 0.000000 -0.450000
v -2.000000 3.950001 -0.450000
v -1.950000 4.000000 -0.450000
v -1.950000 3.950001 -0.500000
v 1.050000 3.050000 0.500000
v 0.950000 3.000000 0.450000
v 1.000000 2.950001 0.450000
v 1.000000 1.050000 0.450000
v 0.950000 1.000000 0.450000
v 1.050000 0.950000 0.500000
v -1.000000 2.950001 0.450000
v -0.950000 3.000000 0.450000
v -1.050000 3.050000 0.500000
v -1.050000 0.950000 0.500000
v -0.950000 1.000000 0.450000
v -1.000000 1.050000 0.450000
v -0.950000 3.000000 -0.450000
v -1.000000 2.950001 -0.450000
v -1.050000 3.050000 -0.500000
v -1.000000 1.050000 -0.450000
v -0.950000 1.000000 -0.450000
v -1.050000 0.950000 -0.500000
v 1.000000 2.950001 -0.450000
v 0.950000 3.000000 -0.450000
v 1.050000 3.050000 -0.500000
v 0.950000 1.000000 -0.450000
v 1.000000 1.050000 -0.450000
v 1.050000 0.950000 -0.500000
vt 0.762536 0.690603
vt 0.762536 0.690603
vt 0.796451 0.690603
vt 0.796451 0.690603
vt 0.770363 0.578372
vt 0.762536 0.552791
vt 0.796451 0.552791
vt 0.788624 0.578372
vt 0.796451 0.663645
vt 0.796451 0.552791
vt 0.788624 0.578372
vt 0.788624 0.638063
vt 0.762102 0.663645
vt 0.762102 0.552791
vt 0.762102 0.552791
vt 0.762102 0.663645
vt 0.788190 0.581215
vt 0.788190 0.635221
vt 0.788190 0.635221
vt 0.788190 0.581215
vt 0.796451 0.525833
vt 0.796451 0.525833
vt 0.762536 0.525833
vt 0.762536 0.525833
vt 0.770363 0.638063
vt 0.770363 0.578372
vt 0.762536 0.552791
vt 0.762536 0.663645
vt 0.762536 0.663645
vt 0.770363 0.638063
vt 0.788624 0.638063
vt 0.796451 0.663645
vt 0.787755 0.605330
vt 0.787755 0.605330
vt 0.771232 0.605330
vt 0.771232 0.605330
vt 0.770798 0.581215
vt 0.770798 0.581215
vt 0.770798 0.635221
vt 0.770798 0.635221
vt 0.771232 0.611106
vt 0.787755 0.611106
vt 0.787755 0.611106
vt 0.771232 0.611106
vt 0.858951 0.629494
vt 0.859168 0.630205
vt 0.858951 0.630916
vt 0.858951 0.743191
vt 0.858951 0.741770
vt 0.859168 0.742481
vt 0.824602 0.630916
vt 0.825036 0.629494
vt 0.825036 0.630916
vt 0.824602 0.741770
vt 0.825036 0.741770
vt 0.825036 0.743191
vt 0.859386 0.630916
vt 0.858951 0.629494
vt 0.858951 0.630916
vt 0.859386 0.741770
vt 0.858951 0.741770
vt 0.858951 0.743191
vt 0.824602 0.630916
vt 0.825036 0.630916
vt 0.825036 0.629494
vt 0.824602 0.741770
vt 0.825036 0.743191
vt 0.825036 0.741770
vt 0.851124 0.716188
vt 0.850255 0.714767
vt 0.850690 0.714767
vt 0.850690 0.659340
vt 0.850255 0.657919
vt 0.851124 0.656497
vt 0.833298 0.713346
vt 0.833732 0.714767
vt 0.832863 0.716188
vt 0.832863 0.656497
vt 0.833732 0.657919
vt 0.833298 0.657919
vt 0.833732 0.714767
vt 0.833298 0.714767
vt 0.832863 0.716188
vt 0.833298 0.659340
vt 0.833732 0.657919
vt 0.832863 0.656497
vt 0.850690 0.713346
vt 0.850255 0.714767
vt 0.851124 0.716188
vt 0.850255 0.657919
vt 0.850690 0.657919
vt 0.851124 0.656497
vt 0.824602 0.629494
vt 0.824602 0.629494
vt 0.859386 0.629494
vt 0.859386 0.629494
vt 0.859386 0.630916
vt 0.859386 0.743191
vt 0.859386 0.743191
vt 0.859386 0.741770
vt 0.824602 0.743191
vt 0.824602 0.743191
vt 0.850690 0.713346
vt 0.833298 0.659340
vt 0.833298 0.714767
vt 0.833298 0.714767
vt 0.833298 0.713346
vt 0.850690 0.657919
vt 0.850690 0.657919
vt 0.850690 0.659340
vt 0.850690 0.714767
vt 0.850690 0.714767
vt 0.833298 0.657919
vt 0.833298 0.657919
vt 0.796886 0.552791
vt 0.796886 0.552791
vt 0.796886 0.663645
vt 0.796886 0.663645
vn 0.0000 1.0000 0.0000
vn 0.0000 0.0000 1.0000
vn -0.0000 -0.0000 -1.0000
vn -1.0000 0.0000 0.0000
vn 0.0000 -1.0000 0.0000
vn 1.0000 0.0000 0.0000
vn 0.4606 -0.7588 0.4606
vn 0.7588 -0.4606 0.4606
vn 0.4606 -0.4606 0.7588
vn 0.4606 0.7588 0.4606
vn 0.4606 0.4606 0.7588
vn 0.7588 0.4606 0.4606
vn -0.7588 -0.4606 0.4606
vn -0.4606 -0.7588 0.4606
vn -0.4606 -0.4606 0.7588
vn -0.7588 0.4606 0.4606
vn -0.4606 0.4606 0.7588
vn -0.4606 0.7588 0.4606
vn 0.7588 -0.4606 -0.4606
vn 0.4606 -0.7588 -0.4606
vn 0.4606 -0.4606 -0.7588
vn 0.7588 0.4606 -0.4606
vn 0.4606 0.4606 -0.7588
vn 0.4606 0.7588 -0.4606
vn -0.7588 -0.4606 -0.4606
vn -0.4606 -0.4606 -0.7588
vn -0.4606 -0.7588 -0.4606
vn -0.7588 0.4606 -0.4606
vn -0.4606 0.7588 -0.4606
vn -0.4606 0.4606 -0.7588
vn -0.3717 -0.3717 0.8507
vn -0.1048 -0.5906 0.8002
vn -0.5906 -0.1048 0.8002
vn -0.5906 0.1048 0.8002
vn -0.1048 0.5906 0.8002
vn -0.3717 0.3717 0.8507
vn 0.5906 -0.1048 0.8002
vn 0.1048 -0.5906 0.8002
vn 0.3717 -0.3717 0.8507
vn 0.3717 0.3717 0.8507
vn 0.1048 0.5906 0.8002
vn 0.5906 0.1048 0.8002
vn 0.1048 -0.5906 -0.8002
vn 0.5906 -0.1048 -0.8002
vn 0.3717 -0.3717 -0.8507
vn 0.5906 0.1048 -0.8002
vn 0.1048 0.5906 -0.8002
vn 0.3717 0.3717 -0.8507
vn -0.5906 -0.1048 -0.8002
vn -0.1048 -0.5906 -0.8002
vn -0.3717 -0.3717 -0.8507
vn -0.1048 0.5906 -0.8002
vn -0.5906 0.1048 -0.8002
vn -0.3717 0.3717 -0.8507
vn 0.7071 -0.7071 0.0000
vn -0.7071 0.7071 0.0000
vn -0.7071 -0.7071 0.0000
vn 0.7071 0.7071 0.0000
usemtl Environment_Material
s 1
f 23/1/1 12/2/1 4/3/1 18/4/1
f 34/5/2 9/6/2 3/7/2 30/8/2
f 17/9/3 15/10/3 48/11/3 45/12/3
f 22/13/4 19/14/4 7/15/4 10/16/4
f 28/17/4 27/18/4 43/19/4 47/20/4
f 14/21/5 1/22/5 8/23/5 21/24/5
f 39/25/3 42/26/3 20/27/3 24/28/3
f 11/29/2 9/6/2 34/5/2 33/30/2
f 48/11/3 15/10/3 20/27/3 42/26/3
f 25/31/2 30/8/2 3/7/2 5/32/2
f 24/28/3 17/9/3 45/12/3 39/25/3
f 29/33/1 46/34/1 41/35/1 35/36/1
f 36/37/6 40/38/6 38/39/6 31/40/6
f 37/41/5 44/42/5 26/43/5 32/44/5
f 5/32/2 11/29/2 33/30/2 25/31/2
f 1/45/7 2/46/8 3/47/9
f 4/48/10 5/49/11 6/50/12
f 7/51/13 8/52/14 9/53/15
f 10/54/16 11/55/17 12/56/18
f 13/57/19 14/58/20 15/59/21
f 16/60/22 17/61/23 18/62/24
f 19/63/25 20/64/26 21/65/27
f 22/66/28 23/67/29 24/68/30
f 25/69/31 26/70/32 27/71/33
f 28/72/34 29/73/35 30/74/36
f 31/75/37 32/76/38 33/77/39
f 34/78/40 35/79/41 36/80/42
f 37/81/43 38/82/44 39/83/45
f 40/84/46 41/85/47 42/86/48
f 43/87/49 44/88/50 45/89/51
f 46/90/52 47/91/53 48/92/54
f 21/93/27 8/94/14 7/51/13 19/63/25
f 1/95/7 14/96/20 13/57/19 2/97/8
f 18/98/24 4/99/10 6/100/12 16/60/22
f 12/101/18 23/102/29 22/66/28 10/54/16
f 23/67/29 18/62/24 17/61/23 24/68/30
f 14/58/20 21/65/27 20/64/26 15/59/21
f 2/97/8 6/100/12 5/49/11 3/47/9
f 27/103/33 28/72/34 30/74/36 25/69/31
f 33/77/39 34/78/40 36/104/42 31/75/37
f 37/105/55 32/106/55 31/75/55 38/107/55
f 38/107/44 40/84/46 42/86/48 39/83/45
f 46/108/56 29/109/56 28/72/56 47/110/56
f 45/89/51 48/92/54 47/110/53 43/87/49
f 26/111/57 44/112/57 43/87/57 27/103/57
f 40/84/58 36/104/58 35/113/58 41/114/58
f 44/88/50 37/81/43 39/83/45 45/89/51
f 48/92/54 42/86/48 41/85/47 46/90/52
f 24/68/30 20/64/26 19/63/25 22/66/28
f 32/76/38 26/70/32 25/69/31 33/77/39
f 34/78/40 30/74/36 29/73/35 35/79/41
f 4/48/10 12/56/18 11/55/17 5/49/11
f 16/60/22 13/57/19 15/59/21 17/61/23
f 8/52/14 1/45/7 3/47/9 9/53/15
f 10/54/16 7/51/13 9/53/15 11/55/17
f 2/115/6 13/116/6 16/117/6 6/118/6
