# Blender v3.4.1 OBJ File: 'GamedevTV_Free_Sample_Export.blend'
# www.blender.org
mtllib Primitive_Doorway.mtl
o Primitive_Doorway
v 2.000000 0.050000 0.450000
v 1.950000 0.050000 0.500000
v 1.950000 0.000000 0.450000
v 2.000000 3.950001 0.450000
v 1.950000 4.000000 0.450000
v 1.950000 3.950001 0.500000
v -2.000000 0.050000 0.450000
v -1.950000 0.000000 0.500000
v -2.000000 3.950001 0.450000
v -1.950000 3.950001 0.500000
v -1.950000 4.000000 0.450000
v 2.000000 0.050000 -0.450000
v 1.950000 0.000000 -0.450000
v 1.950000 0.050000 -0.500000
v 2.000000 3.950001 -0.450000
v 1.950000 3.950001 -0.500000
v 1.950000 4.000000 -0.450000
v -2.000000 0.050000 -0.450000
v -1.950000 0.000000 -0.500000
v -2.000000 3.950001 -0.450000
v -1.950000 4.000000 -0.450000
v -1.950000 3.950001 -0.500000
v -1.000000 0.050000 0.450000
v -1.050000 0.000000 0.500000
v 1.050000 0.050000 0.500000
v 1.000000 0.050000 0.450000
v 1.050000 0.000000 0.450000
v 1.050000 0.050000 -0.500000
v 1.050000 0.000000 -0.450000
v 1.000000 0.050000 -0.450000
v -1.000000 0.050000 -0.450000
v -1.050000 0.000000 -0.500000
v 1.050000 3.050000 0.500000
v 0.950000 3.000000 0.450000
v 1.000000 2.950001 0.450000
v -1.000000 2.950001 0.450000
v -0.950000 3.000000 0.450000
v -1.050000 3.050000 0.500000
v -0.950000 3.000000 -0.450000
v -1.000000 2.950001 -0.450000
v -1.050000 3.050000 -0.500000
v 1.000000 2.950001 -0.450000
v 0.950000 3.000000 -0.450000
v 1.050000 3.050000 -0.500000
vt 0.778585 0.663645
vt 0.846415 0.663645
vt 0.830762 0.638063
vt 0.794238 0.638063
vt 0.830762 0.638063
vt 0.830762 0.552791
vt 0.846415 0.552791
vt 0.846415 0.663645
vt 0.830762 0.525833
vt 0.830762 0.525833
vt 0.846415 0.525833
vt 0.846415 0.525833
vt 0.777716 0.663645
vt 0.777716 0.552791
vt 0.777716 0.552791
vt 0.777716 0.663645
vt 0.846415 0.552791
vt 0.830762 0.552791
vt 0.795977 0.611106
vt 0.829023 0.611106
vt 0.829023 0.611106
vt 0.795977 0.611106
vt 0.778585 0.663645
vt 0.778585 0.551369
vt 0.794238 0.551369
vt 0.794238 0.638063
vt 0.778585 0.690603
vt 0.778585 0.690603
vt 0.846415 0.690603
vt 0.846415 0.690603
vt 0.778585 0.525833
vt 0.778585 0.525833
vt 0.794238 0.525833
vt 0.794238 0.525833
vt 0.794238 0.551369
vt 0.778585 0.551369
vt 0.795108 0.552791
vt 0.795108 0.552791
vt 0.795108 0.635221
vt 0.795108 0.635221
vt 0.829892 0.552791
vt 0.829892 0.635221
vt 0.829892 0.635221
vt 0.829892 0.552791
vt 0.847284 0.630916
vt 0.847284 0.630916
vt 0.847284 0.629494
vt 0.847284 0.741770
vt 0.846415 0.743191
vt 0.846415 0.741770
vt 0.777716 0.741770
vt 0.778585 0.741770
vt 0.778585 0.743191
vt 0.847284 0.630916
vt 0.847284 0.629494
vt 0.847284 0.630916
vt 0.847284 0.741770
vt 0.846415 0.741770
vt 0.846415 0.743191
vt 0.777716 0.741770
vt 0.778585 0.743191
vt 0.778585 0.741770
vt 0.829892 0.630916
vt 0.829892 0.629494
vt 0.829892 0.629494
vt 0.830762 0.630916
vt 0.830762 0.629494
vt 0.829892 0.630916
vt 0.830762 0.716188
vt 0.829023 0.714767
vt 0.829892 0.714767
vt 0.795108 0.713346
vt 0.795977 0.714767
vt 0.794238 0.716188
vt 0.795977 0.714767
vt 0.795108 0.714767
vt 0.794238 0.716188
vt 0.829892 0.713346
vt 0.829023 0.714767
vt 0.830762 0.716188
vt 0.777716 0.629494
vt 0.777716 0.629494
vt 0.777716 0.630916
vt 0.777716 0.630916
vt 0.830762 0.629494
vt 0.846415 0.629494
vt 0.846415 0.630916
vt 0.830762 0.630916
vt 0.847284 0.743191
vt 0.847284 0.743191
vt 0.777716 0.743191
vt 0.777716 0.743191
vt 0.846415 0.629494
vt 0.846415 0.630916
vt 0.795108 0.630916
vt 0.795108 0.630916
vt 0.795108 0.629494
vt 0.795108 0.629494
vt 0.829892 0.629494
vt 0.829892 0.630916
vt 0.829892 0.713346
vt 0.794238 0.629494
vt 0.795108 0.714767
vt 0.795108 0.714767
vt 0.795108 0.713346
vt 0.794238 0.629494
vt 0.829892 0.714767
vt 0.829892 0.714767
vt 0.778585 0.629494
vt 0.778585 0.629494
vt 0.847284 0.552791
vt 0.847284 0.663645
vt 0.847284 0.663645
vt 0.847284 0.552791
vn -0.0000 -0.0000 -1.0000
vn 0.0000 -0.0000 1.0000
vn 0.0000 -1.0000 0.0000
vn -1.0000 0.0000 0.0000
vn 0.0000 1.0000 0.0000
vn 1.0000 0.0000 0.0000
vn 0.7588 -0.4606 0.4606
vn 0.4606 -0.4606 0.7588
vn 0.4606 -0.7588 0.4606
vn 0.7588 0.4606 0.4606
vn 0.4606 0.7588 0.4606
vn 0.4606 0.4606 0.7588
vn -0.7588 0.4606 0.4606
vn -0.4606 0.4606 0.7588
vn -0.4606 0.7588 0.4606
vn 0.7588 -0.4606 -0.4606
vn 0.4606 -0.7588 -0.4606
vn 0.4606 -0.4606 -0.7588
vn 0.7588 0.4606 -0.4606
vn 0.4606 0.4606 -0.7588
vn 0.4606 0.7588 -0.4606
vn -0.7588 0.4606 -0.4606
vn -0.4606 0.7588 -0.4606
vn -0.4606 0.4606 -0.7588
vn -0.4606 -0.4606 0.7588
vn -0.7588 -0.4606 0.4606
vn -0.4606 -0.7588 0.4606
vn -0.4606 -0.4606 -0.7588
vn -0.4606 -0.7588 -0.4606
vn -0.7588 -0.4606 -0.4606
vn -0.3717 -0.3717 0.8507
vn -0.1048 -0.5906 0.8002
vn -0.5906 -0.1048 0.8002
vn 0.5906 -0.1048 0.8002
vn 0.1048 -0.5906 0.8002
vn 0.3717 -0.3717 0.8507
vn 0.1048 -0.5906 -0.8002
vn 0.5906 -0.1048 -0.8002
vn 0.3717 -0.3717 -0.8507
vn -0.5906 -0.1048 -0.8002
vn -0.1048 -0.5906 -0.8002
vn -0.3717 -0.3717 -0.8507
vn -0.7071 -0.7071 0.0000
vn 0.7071 -0.7071 0.0000
vn 0.7071 0.0000 0.7071
vn 0.7071 0.0000 -0.7071
vn -0.7071 0.0000 0.7071
vn -0.7071 0.0000 -0.7071
usemtl Environment_Material
s 1
f 22/1/1 16/2/1 44/3/1 41/4/1
f 33/5/2 25/6/2 2/7/2 6/8/2
f 27/9/3 29/10/3 13/11/3 3/12/3
f 20/13/4 18/14/4 7/15/4 9/16/4
f 16/2/1 14/17/1 28/18/1 44/3/1
f 39/19/3 43/20/3 34/21/3 37/22/3
f 10/23/2 8/24/2 24/25/2 38/26/2
f 21/27/5 11/28/5 5/29/5 17/30/5
f 8/31/3 19/32/3 32/33/3 24/34/3
f 41/4/1 32/35/1 19/36/1 22/1/1
f 23/37/6 31/38/6 40/39/6 36/40/6
f 26/41/4 35/42/4 42/43/4 30/44/4
f 6/8/2 10/23/2 38/26/2 33/5/2
f 1/45/7 2/46/8 3/47/9
f 4/48/10 5/49/11 6/50/12
f 9/51/13 10/52/14 11/53/15
f 12/54/16 13/55/17 14/56/18
f 15/57/19 16/58/20 17/59/21
f 20/60/22 21/61/23 22/62/24
f 25/63/25 26/64/26 27/65/27
f 28/66/28 29/67/29 30/68/30
f 33/69/31 34/70/32 35/71/33
f 36/72/34 37/73/35 38/74/36
f 39/75/37 40/76/38 41/77/39
f 42/78/40 43/79/41 44/80/42
f 19/81/43 8/82/43 7/83/43 18/84/43
f 3/47/9 13/55/17 12/54/16 1/45/7
f 27/85/27 3/86/9 2/87/8 25/88/25
f 17/89/21 5/90/11 4/48/10 15/57/19
f 11/91/15 21/92/23 20/60/22 9/51/13
f 13/93/17 29/67/29 28/66/28 14/94/18
f 5/49/11 11/53/15 10/52/14 6/50/12
f 31/95/44 23/96/44 24/97/44 32/98/44
f 29/99/29 27/65/27 26/100/26 30/68/30
f 35/101/33 26/100/26 25/88/25 33/69/31
f 38/74/36 24/102/45 23/96/45 36/72/34
f 21/61/23 17/59/21 16/58/20 22/62/24
f 39/103/44 37/104/44 36/72/44 40/105/44
f 40/105/38 31/95/46 32/106/46 41/77/39
f 44/80/42 28/66/28 30/68/30 42/78/40
f 34/107/43 43/108/43 42/78/43 35/101/43
f 43/79/41 39/75/37 41/77/39 44/80/42
f 37/73/35 34/70/32 33/69/31 38/74/36
f 9/51/13 7/83/47 8/109/47 10/52/14
f 22/62/24 19/110/48 18/84/48 20/60/22
f 15/57/19 12/54/16 14/94/18 16/58/20
f 1/45/7 4/48/10 6/50/12 2/87/8
f 12/111/6 15/112/6 4/113/6 1/114/6
