# Blender v3.4.1 OBJ File: 'GamedevTV_Free_Sample_Export.blend'
# www.blender.org
mtllib Primitive_Floor_A.mtl
o Primitive_Floor_A
v -2.000000 0.050000 1.950000
v -1.950000 0.000000 1.950000
v -1.950000 0.050000 2.000000
v -1.950000 0.950000 2.000000
v -1.950000 1.000000 1.950000
v -2.000000 0.950000 1.950000
v -2.000000 0.050000 -1.950000
v -1.950000 0.050000 -2.000000
v -1.950000 0.000000 -1.950000
v -1.950000 0.950000 -2.000000
v -2.000000 0.950000 -1.950000
v -1.950000 1.000000 -1.950000
v 2.000000 0.050000 1.950000
v 1.950000 0.050000 2.000000
v 1.950000 0.000000 1.950000
v 2.000000 0.950000 1.950000
v 1.950000 1.000000 1.950000
v 1.950000 0.950000 2.000000
v 2.000000 0.050000 -1.950000
v 1.950000 0.000000 -1.950000
v 1.950000 0.050000 -2.000000
v 2.000000 0.950000 -1.950000
v 1.950000 0.950000 -2.000000
v 1.950000 1.000000 -1.950000
vt 0.762536 0.525833
vt 0.796451 0.525833
vt 0.796451 0.525833
vt 0.762536 0.525833
vt 0.762536 0.605330
vt 0.796451 0.605330
vt 0.796451 0.605330
vt 0.762536 0.605330
vt 0.762536 0.578372
vt 0.762536 0.552791
vt 0.796451 0.552791
vt 0.796451 0.578372
vt 0.762536 0.578372
vt 0.796451 0.578372
vt 0.796451 0.552791
vt 0.762536 0.552791
vt 0.796886 0.578372
vt 0.796886 0.578372
vt 0.796886 0.552791
vt 0.796886 0.552791
vt 0.824602 0.630916
vt 0.824602 0.629494
vt 0.824602 0.630916
vt 0.825036 0.656497
vt 0.825036 0.657919
vt 0.824602 0.656497
vt 0.824602 0.630916
vt 0.824602 0.630916
vt 0.824602 0.629494
vt 0.824602 0.656497
vt 0.824602 0.656497
vt 0.824602 0.657919
vt 0.859386 0.630916
vt 0.859386 0.630916
vt 0.858951 0.629494
vt 0.859386 0.656497
vt 0.859386 0.657919
vt 0.859386 0.656497
vt 0.859386 0.630916
vt 0.859386 0.629494
vt 0.859386 0.630916
vt 0.859386 0.656497
vt 0.859386 0.656497
vt 0.858951 0.657919
vt 0.825036 0.630916
vt 0.825036 0.656497
vt 0.825036 0.630916
vt 0.858951 0.630916
vt 0.858951 0.656497
vt 0.858951 0.656497
vt 0.858951 0.630916
vt 0.858951 0.629494
vt 0.825036 0.629494
vt 0.825036 0.629494
vt 0.824602 0.657919
vt 0.858951 0.657919
vt 0.859386 0.629494
vt 0.825036 0.657919
vt 0.859386 0.657919
vt 0.762102 0.578372
vt 0.762102 0.578372
vt 0.762102 0.552791
vt 0.762102 0.552791
vn 0.0000 -1.0000 0.0000
vn 0.0000 1.0000 0.0000
vn 0.0000 0.0000 1.0000
vn -0.0000 0.0000 -1.0000
vn 1.0000 0.0000 0.0000
vn -0.7588 -0.4606 0.4606
vn -0.4606 -0.7588 0.4606
vn -0.4606 -0.4606 0.7588
vn -0.4606 0.4606 0.7588
vn -0.4606 0.7588 0.4606
vn -0.7588 0.4606 0.4606
vn -0.7588 -0.4606 -0.4606
vn -0.4606 -0.4606 -0.7588
vn -0.4606 -0.7588 -0.4606
vn -0.4606 0.4606 -0.7588
vn -0.7588 0.4606 -0.4606
vn -0.4606 0.7588 -0.4606
vn 0.7588 -0.4606 0.4606
vn 0.4606 -0.4606 0.7588
vn 0.4606 -0.7588 0.4606
vn 0.7588 0.4606 0.4606
vn 0.4606 0.7588 0.4606
vn 0.4606 0.4606 0.7588
vn 0.7588 -0.4606 -0.4606
vn 0.4606 -0.7588 -0.4606
vn 0.4606 -0.4606 -0.7588
vn 0.7588 0.4606 -0.4606
vn 0.4606 0.4606 -0.7588
vn 0.4606 0.7588 -0.4606
vn -1.0000 0.0000 0.0000
usemtl Environment_Material
s 1
f 9/1/1 20/2/1 15/3/1 2/4/1
f 5/5/2 17/6/2 24/7/2 12/8/2
f 4/9/3 3/10/3 14/11/3 18/12/3
f 10/13/4 23/14/4 21/15/4 8/16/4
f 22/17/5 16/18/5 13/19/5 19/20/5
f 1/21/6 2/22/7 3/23/8
f 4/24/9 5/25/10 6/26/11
f 7/27/12 8/28/13 9/29/14
f 10/30/15 11/31/16 12/32/17
f 13/33/18 14/34/19 15/35/20
f 16/36/21 17/37/22 18/38/23
f 19/39/24 20/40/25 21/41/26
f 22/42/27 23/43/28 24/44/29
f 3/45/8 4/24/9 6/26/11 1/21/6
f 10/46/15 8/47/13 7/27/12 11/31/16
f 22/42/27 19/39/24 21/48/26 23/49/28
f 18/50/23 14/51/19 13/33/18 16/36/21
f 20/52/25 9/53/14 8/47/13 21/48/26
f 2/54/7 15/35/20 14/51/19 3/45/8
f 9/29/14 2/22/7 1/21/6 7/27/12
f 5/55/10 12/32/17 11/31/16 6/26/11
f 17/56/22 5/25/10 4/24/9 18/50/23
f 15/57/20 20/40/25 19/39/24 13/33/18
f 12/58/17 24/44/29 23/49/28 10/46/15
f 24/59/29 17/37/22 16/36/21 22/42/27
f 6/60/30 11/61/30 7/62/30 1/63/30
